<svg width="249" height="123" viewBox="0 0 249 123" fill="none" xmlns="http://www.w3.org/2000/svg">
<g clip-path="url(#clip0_26_465)">
<g opacity="0.289298" filter="url(#filter0_f_26_465)">
<path d="M30.9608 89.8848L31.2231 112.224L38.045 111.173V88.0451L30.9608 89.8848Z" fill="#98C8D4"/>
<path d="M38.0451 88.0451L69.5309 93.8272L69.2687 116.955L38.0451 111.173V88.0451Z" fill="#5BA8BC"/>
<path d="M69.5309 93.8271H103.903L103.641 116.692L69.2686 116.955L69.5309 93.8271Z" fill="#5BA8BC"/>
<path d="M103.903 93.8272L125.418 88.5709L125.156 112.487L103.641 116.692L103.903 93.8272Z" fill="#8CC3CB"/>
<path d="M125.418 88.5709L166.087 100.135L166.35 123L125.156 112.487L125.418 88.5709Z" fill="#5C9FAF"/>
<path d="M166.087 100.135L230.108 86.9939V110.385L166.35 123L166.087 100.135Z" fill="#B1E0EA"/>
<path d="M238.767 75.4299L230.108 86.9939V110.385L239.292 98.2951L238.767 75.4299Z" fill="#D3EAF2"/>
<path d="M0.26236 70.6992L35.6837 82.7889L30.961 89.8849V104.866L0.524765 93.3017L0.26236 70.6992Z" fill="#5492A1"/>
<path d="M85.0115 25.2316L64.8082 31.0136L48.8028 36.27L33.8471 37.8471L19.9409 47.8342L12.8565 58.8725L0.26236 70.6994L35.6837 82.789L30.961 89.8851L38.0452 88.0454L69.531 93.8274H103.903L125.418 88.571L166.087 100.135L230.108 86.9941L238.767 75.4301L232.995 68.0712L226.435 52.5649L220.4 43.8919L216.465 38.1099L210.43 38.3727L145.097 27.8599L85.0115 25.2316Z" fill="#256E97"/>
</g>
<path d="M9.70798 27.5959L12.5941 33.6408L9.75162 36.4564L9.70798 27.5959Z" fill="#3DB1C0"/>
<path d="M30.4362 10.5128V14.7739L33.5848 12.6153L30.4362 10.5128Z" fill="#3DB1C0"/>
<path d="M30.6985 64.6533L30.961 86.9929L37.7828 85.9417V62.8136L30.6985 64.6533Z" fill="#98C8D4" stroke="#DDDDDD" stroke-width="0.515119"/>
<path d="M37.7828 62.8136L69.2686 68.5956L69.0063 91.7237L37.7828 85.9417V62.8136Z" fill="#5BA8BC" stroke="#DDDDDD" stroke-width="0.515119"/>
<path d="M69.2686 68.5956H103.641L103.378 91.4608L69.0063 91.7236L69.2686 68.5956Z" fill="#5BA8BC" stroke="#DDDDDD" stroke-width="0.515119"/>
<path d="M103.641 68.5956L125.156 63.3392L124.894 87.2557L103.378 91.4608L103.641 68.5956Z" fill="#8CC3CB" stroke="#DDDDDD" stroke-width="0.515119"/>
<path d="M125.156 63.3392L165.825 74.9033L166.087 97.7685L124.893 87.2557L125.156 63.3392Z" fill="#5C9FAF" stroke="#DDDDDD" stroke-width="0.515119"/>
<path d="M165.825 74.9033L229.846 61.7623V85.1532L166.087 97.7685L165.825 74.9033Z" fill="#B1E0EA" stroke="#DDDDDD" stroke-width="0.515119"/>
<path d="M238.505 50.1982L229.846 61.7622V85.1531L239.029 73.0635L238.505 50.1982Z" fill="#D3EAF2" stroke="#DDDDDD" stroke-width="0.515119"/>
<path d="M6.10352e-05 45.4677L35.4214 57.5573L30.6986 64.6534V79.6341L0.262357 68.07L6.10352e-05 45.4677Z" fill="#5492A1"/>
<path d="M249 36.2689V58.8713L238.767 63.3393L238.505 50.1983L232.732 42.8394L249 36.2689Z" fill="#ADDFE8"/>
<path d="M226.173 27.3331L235.356 25.4934V31.2754L226.173 27.3331Z" fill="#8FD2E7"/>
<path d="M215.678 8.41028L216.202 12.8782L210.167 13.141L215.678 8.41028Z" fill="#71C1DA"/>
<path d="M151.394 0.262817L144.835 2.62824L151.427 3.15381L151.394 0.262817Z" fill="#3DB1C0"/>
<path d="M84.7491 0L64.5458 5.78199L47.7534 5.5192L48.5405 11.0384L30.4363 10.5127L33.5848 12.6153L19.6786 22.6024L9.70809 27.5959L12.5942 33.6407L6.10352e-05 45.4676L35.4214 57.5572L30.6986 64.6533L37.7829 62.8136L69.2687 68.5956H103.641L125.156 63.3392L165.825 74.9033L229.846 61.7623L238.505 50.1983L232.732 42.8394L249 36.269L226.173 27.3331L235.356 25.4934L220.138 18.6601L216.202 12.8781L210.168 13.1409L215.678 8.4102L144.835 2.62821L151.394 0.262788L84.7491 0Z" fill="#D7EEF6"/>
</g>
<defs>
<filter id="filter0_f_26_465" x="-2.73764" y="22.2316" width="245.029" height="103.768" filterUnits="userSpaceOnUse" color-interpolation-filters="sRGB">
<feFlood flood-opacity="0" result="BackgroundImageFix"/>
<feBlend mode="normal" in="SourceGraphic" in2="BackgroundImageFix" result="shape"/>
<feGaussianBlur stdDeviation="1.5" result="effect1_foregroundBlur_26_465"/>
</filter>
<clipPath id="clip0_26_465">
<rect width="249" height="123" fill="white"/>
</clipPath>
</defs>
</svg>
