<svg width="312" height="219" viewBox="0 0 312 219" fill="none" xmlns="http://www.w3.org/2000/svg">
<path d="M155.07 103.247L101.713 90.1487L165.664 1.52588e-05L223.259 85.9109L155.07 103.247Z" fill="#D9D9D9"/>
<path d="M137.926 90.3413L165.664 0L206.693 88.2224L193.98 93.4233L155.262 103.247L101.52 90.3413L101.982 89.7634L137.926 90.3413Z" fill="#AED3E9"/>
<path d="M214.591 198.019L167.205 3.27464L245.796 179.912L214.591 198.019Z" fill="#5BB0E0"/>
<path d="M223.452 86.1036L165.664 1.52588e-05L207.849 91.1118L223.452 86.1036Z" fill="#AECEE0"/>
<path d="M101.52 161.805L107.299 97.661L138.89 94.1938L139.082 151.596L101.52 161.805Z" fill="#9FCDE7"/>
<path d="M61.0689 141.58L83.7987 89.7634L107.299 97.661L102.869 150.248L61.0689 141.58Z" fill="#AED3E9"/>
<path d="M107.299 89.956L83.7989 89.7634L107.299 97.661L138.89 94.1938L107.299 89.956Z" fill="#D9D9D9"/>
<path d="M139.082 102.862L138.89 94.1938L119.82 112.108V157.182L126.176 155.256L125.021 112.878L139.082 102.862Z" fill="#7DC2EA"/>
<path d="M123.865 144.854L125.057 112.878L128.488 146.283L123.865 144.854Z" fill="#5BB0E0"/>
<path d="M102.291 157.182L104.602 130.215L105.951 158.916L102.291 157.182Z" fill="#7DC2EA"/>
<path d="M83.7983 191.277L65.8842 183.187L66.4621 179.142L83.7983 191.277Z" fill="#64BAEA"/>
<path d="M68.1959 198.019L26.8722 184.658L65.8843 183.187L68.1959 198.019Z" fill="#7DC2EA"/>
<path d="M68.1957 198.019L65.8842 183.187L83.7983 191.277L88.4213 195.707L88.0361 200.33L68.1957 198.019Z" fill="#5BB0E0"/>
<path d="M104.217 135.416L72.8189 128.866L47.3923 128.096L71.8558 143.891L104.217 135.416Z" fill="#D9D9D9"/>
<path d="M104.217 202.449V135.416L71.8556 143.891L65.8842 183.187L83.7983 191.277L104.217 202.449Z" fill="#9FCDE7"/>
<path d="M71.8559 143.891L47.3924 128.096L26.8723 184.659L65.8845 183.187L71.8559 143.891Z" fill="#AED3E9"/>
<path d="M104.217 202.449V135.416L93.0443 138.305L84.1835 191.47L104.217 202.449Z" fill="#7DC2EA"/>
<path d="M104.217 202.449V135.416L100.557 136.379L83.7984 191.277L88.614 195.9L104.217 202.449Z" fill="#5BB0E0"/>
<path d="M181.074 104.21L138.889 94.1938L204.767 83.9846L228.653 86.4887L181.074 104.21Z" fill="#D9D9D9"/>
<path d="M204.382 173.555L181.074 104.21L228.653 86.4888L272.764 160.264L213.628 192.048L204.382 173.555Z" fill="#9FCDE7"/>
<path d="M181.074 104.21L138.889 94.1938L139.275 195.515L185.697 197.634L212.665 180.49L181.074 104.21Z" fill="#9FCDE7"/>
<path d="M177.414 110.374L179.34 103.825L183.771 112.301L203.419 174.519L195.714 175.482L177.414 110.374Z" fill="#7DC2EA"/>
<path d="M183.386 110.952L207.078 175.096L199.759 173.941L183.386 110.952Z" fill="#5BB0E0"/>
<path d="M205.73 177.408L181.074 104.21L190.706 100.55L243.87 173.941L205.73 177.408Z" fill="#AED3E9"/>
<path d="M168.169 183.957L151.025 127.518L176.644 109.026L194.366 174.519L168.169 183.957Z" fill="#9FCDE7"/>
<path d="M151.025 127.518L123.865 112.493L126.176 141.58L123.287 203.027L170.865 192.625L151.025 127.518Z" fill="#AED3E9"/>
<path d="M123.865 112.493L138.889 98.0463L174.14 105.751L176.644 109.026L151.025 127.518L123.865 112.493Z" fill="#D9D9D9"/>
<path d="M120.398 142.735L127.332 141.58L108.07 168.355L89.9628 171.051L120.398 142.735Z" fill="#D9D9D9"/>
<path d="M113.078 203.798L108.069 168.355L89.9627 171.051L88.0364 200.33L113.078 203.798Z" fill="#7DC2EA"/>
<path d="M123.094 205.146L127.332 141.58L108.069 168.355L113.078 203.798L123.094 205.146Z" fill="#7DC2EA"/>
<path d="M108.069 168.355L89.9626 171.051L87.6511 194.937L88.4216 195.707L110.188 182.801L108.069 168.355Z" fill="#9FCDE7"/>
<path d="M114.619 159.301L108.069 168.355L113.078 203.798L116.16 204.183L114.619 159.301Z" fill="#5BB0E0"/>
<path d="M202.841 140.231L241.173 107.485L261.399 116.346L224.993 137.727L202.841 140.231Z" fill="#D9D9D9"/>
<path d="M213.628 181.453L202.841 140.231L224.993 137.727L251.768 196.67L249.649 196.863L213.628 181.453Z" fill="#AED3E9"/>
<path d="M205.538 139.931L202.841 140.231L213.628 181.453L205.538 139.931Z" fill="#9FCDE7"/>
<path d="M251.768 196.67L224.993 137.727L261.399 116.346L295.301 164.502L251.768 196.67Z" fill="#9FCDE7"/>
<path d="M135.037 207.072L135.422 177.986L124.635 182.224L123.094 205.146L135.037 207.072Z" fill="#7DC2EA"/>
<path d="M130.029 180.105L124.635 182.224L123.094 205.146L125.406 205.531L130.029 180.105Z" fill="#5BB0E0"/>
<path d="M204.382 173.363L135.422 177.986L176.259 187.617L204.382 173.363Z" fill="#D9D9D9"/>
<path d="M135.037 207.072L135.422 177.986L176.259 187.617L174.333 203.798L135.037 207.072Z" fill="#9FCDE7"/>
<path d="M174.333 203.798L176.259 187.617L191.669 194.744L192.247 202.257L174.333 203.798Z" fill="#7DC2EA"/>
<path d="M192.247 202.257L191.669 194.744L207.079 201.293L192.247 202.257Z" fill="#5BB0E0"/>
<path d="M191.669 194.744L176.259 187.617L204.382 173.363L191.669 194.744Z" fill="#81C6ED"/>
<path d="M204.382 173.363L191.669 194.744L207.079 201.293L249.649 196.863L204.382 173.363Z" fill="#64BAEA"/>
<path d="M174.84 208.258L256.145 201.023L282.672 180.524L260.451 205.501L174.84 208.258Z" fill="url(#paint0_linear_26_500)" fill-opacity="0.25"/>
<path d="M65.1128 205.846L26.1829 188.793L65.1128 212.047H121.613L65.1128 205.846Z" fill="url(#paint1_linear_26_500)" fill-opacity="0.25"/>
<path d="M127.814 218.765L261.829 211.186L250.977 218.765H127.814Z" fill="url(#paint2_linear_26_500)" fill-opacity="0.25"/>
<path d="M305.41 167.605L294.558 157.787L311.956 169.328L282.155 192.755L305.41 167.605Z" fill="url(#paint3_linear_26_500)" fill-opacity="0.25"/>
<path d="M11.7134 182.591L23.7713 175.701L0 182.591L29.2835 194.994L11.7134 182.591Z" fill="url(#paint4_linear_26_500)" fill-opacity="0.25"/>
<defs>
<linearGradient id="paint0_linear_26_500" x1="228.756" y1="180.524" x2="228.756" y2="208.258" gradientUnits="userSpaceOnUse">
<stop stop-color="#42A8E1" stop-opacity="0.28"/>
<stop offset="1" stop-color="#42A8E1"/>
</linearGradient>
<linearGradient id="paint1_linear_26_500" x1="73.8979" y1="188.793" x2="73.8979" y2="212.047" gradientUnits="userSpaceOnUse">
<stop stop-color="#42A8E1" stop-opacity="0.28"/>
<stop offset="1" stop-color="#42A8E1"/>
</linearGradient>
<linearGradient id="paint2_linear_26_500" x1="195.683" y1="211.186" x2="195.683" y2="218.765" gradientUnits="userSpaceOnUse">
<stop stop-color="#42A8E1" stop-opacity="0.28"/>
<stop offset="1" stop-color="#42A8E1"/>
</linearGradient>
<linearGradient id="paint3_linear_26_500" x1="297.056" y1="157.787" x2="297.056" y2="192.755" gradientUnits="userSpaceOnUse">
<stop stop-color="#42A8E1" stop-opacity="0.28"/>
<stop offset="1" stop-color="#42A8E1"/>
</linearGradient>
<linearGradient id="paint4_linear_26_500" x1="14.6418" y1="175.701" x2="14.6418" y2="194.994" gradientUnits="userSpaceOnUse">
<stop stop-color="#42A8E1" stop-opacity="0.28"/>
<stop offset="1" stop-color="#42A8E1"/>
</linearGradient>
</defs>
</svg>
