<svg width="299" height="255" viewBox="0 0 299 255" fill="none" xmlns="http://www.w3.org/2000/svg">
<path d="M151.273 121.17L131.182 125.75L93.2158 52.3295L152.454 78.1818L151.273 121.17Z" fill="#2A91D3" stroke="#2C90D1" stroke-width="0.999999"/>
<path d="M0 -1L5.02271 30.3182L34.2727 70.2045L43.1364 103.886L73.5682 123.386L143 254.568L171.946 220.456L179.045 201.386L201.5 187.795L217.455 136.386L253.5 109.205L267.091 63.4091L290.432 42.1364L299 -0.704549L0 -1Z" fill="#0A7BCF"/>
<path d="M73.568 123.386L91.1475 126.341L61.1589 86.1591L36.0094 76.8328L43.1362 103.886L73.568 123.386Z" fill="#0282CB"/>
<path d="M93.2158 52.3295L131.182 125.75L150.202 121.17L152.454 78.1818L93.2158 52.3295Z" fill="#2A91D3"/>
<path d="M105.33 130.034L104.444 125.307L80.2143 93.1022L67.1469 -0.918004L30.897 -0.948248L47.3591 45.4787L66.3318 83.2469L105.33 130.034Z" fill="#0186D3"/>
<path d="M5.02271 30.3182L33.6818 43.9091L22.9574 -0.965704L0 -1L5.02271 30.3182Z" fill="#519CD5"/>
<path d="M31.9672 -0.948248L49.0201 44.5175L56.9851 -0.948248H31.9672Z" fill="#519CD5"/>
<path d="M61.9212 -0.948248L65.3161 32.6092L65.0028 -0.922055L61.9212 -0.948248Z" fill="#519CD5"/>
<path d="M67.1465 -0.917983L75.9318 88.8201L104.443 125.307L93.2159 52.3295L135.614 118.955L152.455 78.1818L92.1818 40.5113L89.4877 -0.931488L67.1465 -0.917983Z" fill="#519CD5"/>
<path d="M97.9433 -0.704611L135.894 62.0183L130.886 -0.40916L97.9433 -0.704611Z" fill="#519CD5"/>
<path d="M163.534 -0.409151L163.239 6.53403L188.093 67.6258L201.352 -0.556877L163.534 -0.409151Z" fill="#519CD5"/>
<path d="M236.807 -0.409151L190.864 52.6249L201.352 -0.556877L236.807 -0.409151Z" fill="#2A91D3"/>
<path d="M249.068 -0.409142L200.991 131.18L241.091 113.496L248.921 14.9545L259.557 -0.409142H249.068Z" fill="#2A91D3"/>
<path d="M280.412 -0.705356L274.329 46.8636L291.023 -0.70382L280.412 -0.705356Z" fill="#519CD5"/>
<path d="M244.218 73.4546L267.091 63.4091L278.687 -0.630682L259.557 -0.409093L248.92 14.9545L244.218 73.4546Z" fill="#2A91D3"/>
<path d="M174.761 139.489L190.864 52.6249L236.807 -0.409142H249.068L193.818 130.477L174.761 139.489Z" fill="#0186D3"/>
<path d="M130.886 -0.409142L136.352 68.1363L152.455 78.1818L163.239 6.53404L163.534 -0.409142H130.886Z" fill="#2A91D3"/>
<path d="M89.4877 -0.931426L94.2672 -0.896405L116.114 55.5795L92.1818 40.5113L89.4877 -0.931426Z" fill="#2A91D3"/>
<path d="M61.9211 -0.948248L65.316 32.6092L66.4775 75.3749L49.0204 44.5175L56.9854 -0.948248H61.9211Z" fill="#2A91D3"/>
<path d="M32.4263 67.6193L54.5044 72.9045L45.5002 48.5625L29.6933 43.392L32.4263 67.6193Z" fill="#0186D3"/>
<path d="M32.4261 67.6193L35.8977 67.3238L29.6932 43.392L45.5 48.5624L29.9148 -0.926193L22.9573 -0.965753L33.6818 43.909L5.02271 30.3181L32.4261 67.6193Z" fill="#2A91D3"/>
<path d="M78.8126 115.04L62.0994 87.4648L36.5996 79.0682L41.6962 98.1988L78.8126 115.04Z" fill="#2A91D3"/>
<path d="M93.2158 52.3295L108.247 131.475L120.213 128.336L131.182 125.75L93.2158 52.3295Z" fill="#0186D3"/>
<path d="M108.247 131.475L120.213 128.336L93.2158 52.3295L104.443 125.307L108.247 131.475Z" fill="#2A91D3"/>
<path d="M75.4887 127.08L101.045 136.165L130.443 206.852L138.716 218.67L119.972 210.998L75.4887 127.08Z" fill="#2A91D3"/>
<path d="M125.638 221.756L140.932 235.364L143 254.568L125.638 221.756Z" fill="#519CD5"/>
<path d="M150.866 245.815L140.932 235.364L143 254.568L150.866 245.815Z" fill="#519CD5" fill-opacity="0.785714"/>
<path d="M138.716 218.67L140.932 235.364L125.638 221.756L119.972 210.998L138.716 218.67Z" fill="#519CD5" fill-opacity="0.79"/>
<path d="M138.716 218.67L151.165 200.871L171.946 220.456L150.866 245.815L140.932 235.364L138.716 218.67Z" fill="#2A91D3" fill-opacity="0.703008"/>
<path d="M178.713 192.454L201.5 187.795L201.816 154.938L191.011 145.989L178.713 192.454Z" fill="#2A91D3"/>
<path d="M174.957 192.227L184.266 147.497L138.41 167.094L145.225 191.396L174.957 192.227Z" fill="#2A91D3"/>
<path d="M105.018 137.495L148.171 128.852L138.41 167.094M191.455 143.809L216.568 139.341L214.057 147.614L200.746 152.796L191.455 143.809Z" fill="#0282CB"/>
<path d="M152.454 78.1818L154.646 153.22L163.01 149.527L186.801 64.1558L163.239 6.53405L152.454 78.1818Z" fill="#0186D3"/>
<path d="M36.5996 79.0682L56.0996 85.4842L62.7473 109.241L43.1365 103.886L36.5996 79.0682Z" fill="#519CD5"/>
<path d="M76.8108 129.587L101.932 138.307L130.443 206.852L115.171 202.04L76.8108 129.587Z" fill="#519CD5"/>
<path d="M130.443 206.852L138.236 208.652L145.225 191.396L125.752 195.708L130.443 206.852Z" fill="#2C7CB9"/>
<path d="M173.642 188.201L184.266 147.497L138.41 167.094L144.339 187.853L173.642 188.201Z" fill="#0282CB"/>
<path d="M130.443 206.852L139.199 206.333L145.225 191.396L138.41 167.094L105.018 137.495L101.932 138.307L124.396 193.473L130.443 206.852Z" fill="#4293D1"/>
<path d="M238.584 27.2651L202.65 127.311L241.091 113.496L248.92 14.9545L259.557 -0.409142H249.068L238.584 27.2651Z" fill="#519CD5"/>
<path d="M291.023 -0.703847L299 -0.704611L290.432 42.1363L275.4 46.8636L291.023 -0.703847Z" fill="#0186D3"/>
</svg>
